<?xml version="1.0" encoding="UTF-8"?>
<svg version="1.1" xmlns="http://www.w3.org/2000/svg" width="671" height="145">
<path d="M0 0 C221.43 0 442.86 0 671 0 C671 47.85 671 95.7 671 145 C449.57 145 228.14 145 0 145 C0 97.15 0 49.3 0 0 Z " fill="#7795F7" transform="translate(0,0)"/>
<path d="M0 0 C5.86133502 3.41148015 10.14230252 8.97006459 12.453125 15.27734375 C14.85022338 26.11876598 15.44715365 40.52963923 9.3125 50.1640625 C8.95027344 50.75058594 8.58804688 51.33710937 8.21484375 51.94140625 C5.12987014 56.21853915 1.34870265 58.83599721 -3.6875 60.1640625 C-11.09973135 60.91215588 -19.52340793 61.6664955 -26.08203125 57.5546875 C-31.98138612 52.44478401 -35.98648817 45.60754706 -36.98901367 37.82275391 C-37.12492521 35.32409192 -37.15464763 32.85367888 -37.125 30.3515625 C-37.11887695 29.47298584 -37.11275391 28.59440918 -37.10644531 27.68920898 C-36.89533606 18.90138031 -35.22969183 10.51383693 -28.6875 4.1640625 C-20.64992223 -1.74109668 -9.62889743 -2.99503496 0 0 Z " fill="#7895F8" transform="translate(306.6875,43.8359375)"/>
<path d="M0 0 C27 0 27 0 36 4 C41.55945539 9.79109937 42.39292188 13.26506719 42.453125 21.17895508 C42.32224903 26.42594908 41.38437723 29.63343952 37.8515625 33.484375 C32.51155204 37.85552281 26.57005837 40.14692899 19.671875 40.09765625 C18.5905127 40.09390991 18.5905127 40.09390991 17.48730469 40.09008789 C16.13233887 40.07643188 16.13233887 40.07643188 14.75 40.0625 C11.8625 40.041875 8.975 40.02125 6 40 C6 49.57 6 59.14 6 69 C4.02 69 2.04 69 0 69 C0 46.23 0 23.46 0 0 Z " fill="#EBF0FE" transform="translate(47,39)"/>
<path d="M0 0 C6 0 6 0 7.81298828 1.61523438 C8.35165527 2.43314453 8.89032227 3.25105469 9.4453125 4.09375 C10.12239258 5.09921875 10.79947266 6.1046875 11.49707031 7.140625 C11.88382935 7.73746094 12.27058838 8.33429687 12.66906738 8.94921875 C14.20002569 11.30821164 15.76078884 13.64612588 17.32324219 15.984375 C21.20175794 21.80466806 25.03929457 27.65144278 28.875 33.5 C30.21850313 35.54443309 31.56225113 37.58870527 32.90625 39.6328125 C35.84390127 44.10133175 38.77920875 48.57138014 41.71237183 53.04284668 C42.802143 54.69926374 43.90016523 56.35024785 45 58 C45.33 38.86 45.66 19.72 46 0 C47.65 0 49.3 0 51 0 C51 22.77 51 45.54 51 69 C45 69 45 69 43.23808289 67.46176147 C42.76337051 66.74009796 42.28865814 66.01843445 41.79956055 65.27490234 C41.24846115 64.45919769 40.69736176 63.64349304 40.12956238 62.80307007 C39.26685478 61.45808945 39.26685478 61.45808945 38.38671875 60.0859375 C37.77286819 59.164711 37.15901764 58.2434845 36.52656555 57.29434204 C34.56053207 54.33370893 32.62401917 51.35500091 30.6875 48.375 C29.39575868 46.42063213 28.10215791 44.4674919 26.80664062 42.515625 C20.11271112 32.40210494 13.55868391 22.2023972 7 12 C6.67 30.81 6.34 49.62 6 69 C4.02 69 2.04 69 0 69 C0 46.23 0 23.46 0 0 Z " fill="#ECF0FE" transform="translate(341,39)"/>
<path d="M0 0 C6 0 6 0 7.76191711 1.53823853 C8.23662949 2.25990204 8.71134186 2.98156555 9.20043945 3.72509766 C10.02708855 4.94865463 10.02708855 4.94865463 10.87043762 6.19692993 C11.44557602 7.09358368 12.02071442 7.99023743 12.61328125 8.9140625 C13.22713181 9.835289 13.84098236 10.7565155 14.47343445 11.70565796 C16.43946793 14.66629107 18.37598083 17.64499909 20.3125 20.625 C21.60424132 22.57936787 22.89784209 24.5325081 24.19335938 26.484375 C30.88728888 36.59789506 37.44131609 46.7976028 44 57 C44.33 38.19 44.66 19.38 45 0 C46.65 0 48.3 0 50 0 C50 22.77 50 45.54 50 69 C44 69 44 69 42.10058594 67.12670898 C41.56723633 66.25860596 41.03388672 65.39050293 40.484375 64.49609375 C39.87835449 63.53550049 39.27233398 62.57490723 38.64794922 61.58520508 C38.02162598 60.5464624 37.39530273 59.50771973 36.75 58.4375 C35.41466233 56.3043119 34.07872497 54.17149908 32.7421875 52.0390625 C32.09862305 50.9965332 31.45505859 49.95400391 30.79199219 48.87988281 C28.56425147 45.29971531 26.23715237 41.8053876 23.875 38.3125 C17.83952572 29.25928858 11.92980351 20.12277464 6 11 C5.67 30.14 5.34 49.28 5 69 C3.35 69 1.7 69 0 69 C0 46.23 0 23.46 0 0 Z " fill="#F0F3FE" transform="translate(411,39)"/>
<path d="M0 0 C7.7004202 5.71741725 12.00993665 12.11509865 14.078125 21.54296875 C15.12952 34.85108063 14.68316905 47.69921406 6.078125 58.54296875 C-0.00151175 65.0982739 -6.16816655 67.5819558 -15.04394531 67.99658203 C-24.13585196 68.18377994 -30.99153121 67.02423084 -37.9375 60.7109375 C-47.58896538 50.4309103 -48.37951538 40.2272876 -48.20703125 26.71875 C-48.00388656 21.00721964 -46.8966564 16.45290207 -43.921875 11.54296875 C-43.32375 10.47046875 -42.725625 9.39796875 -42.109375 8.29296875 C-32.22041069 -4.1388721 -14.06647092 -8.54035735 0 0 Z M-35.921875 8.54296875 C-42.81641046 18.98326531 -42.97769193 30.39720183 -41.921875 42.54296875 C-41.10329178 46.29960203 -39.95481896 49.29025842 -37.921875 52.54296875 C-37.55964844 53.13078125 -37.19742187 53.71859375 -36.82421875 54.32421875 C-33.73444149 58.59753781 -29.95848712 61.21479548 -24.921875 62.54296875 C-17.50964365 63.29106213 -9.08596707 64.04540175 -2.52734375 59.93359375 C3.39960209 54.79979151 7.45530491 47.92724579 8.36352539 40.07568359 C8.47970636 37.41230381 8.48771746 34.77101029 8.453125 32.10546875 C8.46472656 31.21537109 8.47632813 30.32527344 8.48828125 29.40820312 C8.45403117 21.5934762 7.21743535 14.1085621 1.765625 8.16796875 C0.93611328 7.22824219 0.93611328 7.22824219 0.08984375 6.26953125 C-5.13653397 1.78397989 -9.81329914 1.06343943 -16.421875 1.16796875 C-17.52208984 1.15056641 -17.52208984 1.15056641 -18.64453125 1.1328125 C-25.66973205 1.17051483 -30.80389517 3.69435628 -35.921875 8.54296875 Z " fill="#EDF1FE" transform="translate(311.921875,41.45703125)"/>
<path d="M0 0 C12.87 0 25.74 0 39 0 C39 1.65 39 3.3 39 5 C28.11 5 17.22 5 6 5 C6 13.25 6 21.5 6 30 C16.23 30 26.46 30 37 30 C37 31.65 37 33.3 37 35 C26.77 35 16.54 35 6 35 C6 44.57 6 54.14 6 64 C16.89 64 27.78 64 39 64 C39 65.65 39 67.3 39 69 C26.13 69 13.26 69 0 69 C0 46.23 0 23.46 0 0 Z " fill="#ECF0FE" transform="translate(480,39)"/>
<path d="M0 0 C12.54 0 25.08 0 38 0 C38 1.65 38 3.3 38 5 C27.44 5 16.88 5 6 5 C6 13.25 6 21.5 6 30 C15.9 30 25.8 30 36 30 C36 31.65 36 33.3 36 35 C26.1 35 16.2 35 6 35 C6 44.57 6 54.14 6 64 C16.56 64 27.12 64 38 64 C38 65.65 38 67.3 38 69 C25.46 69 12.92 69 0 69 C0 46.23 0 23.46 0 0 Z " fill="#ECF0FE" transform="translate(104,39)"/>
<path d="M0 0 C3.17625 -0.061875 6.3525 -0.12375 9.625 -0.1875 C11.1092749 -0.22846802 11.1092749 -0.22846802 12.62353516 -0.27026367 C19.12847461 -0.33140774 23.03623031 0.82162928 28.34375 4.72265625 C30.71302007 7.9804026 30.53161123 10.45053326 30.5 14.4375 C30.5103125 15.73558594 30.520625 17.03367187 30.53125 18.37109375 C29.91267795 22.59648668 29.12493178 24.12364234 26 27 C20.34001597 30.25749393 15.48532592 30.37648863 9.0625 30.1875 C4.5765625 30.0946875 4.5765625 30.0946875 0 30 C0 20.1 0 10.2 0 0 Z " fill="#7795F7" transform="translate(53,44)"/>
<path d="M0 0 C-0.33 1.65 -0.66 3.3 -1 5 C-2.155 4.67 -3.31 4.34 -4.5 4 C-13.15270126 2.10765012 -24.65028369 0.91091535 -32.4609375 5.796875 C-38.0843535 10.19284487 -41.78558068 15.21776175 -44 22 C-44.19076139 24.7940933 -44.28585234 27.46056546 -44.25 30.25 C-44.24250732 31.00853271 -44.23501465 31.76706543 -44.22729492 32.54858398 C-44.05295436 41.62695468 -42.74915241 48.71443617 -37 56 C-32.83906644 59.856475 -29.22327868 62.2610188 -23.48046875 62.23046875 C-22.19366211 62.22756836 -22.19366211 62.22756836 -20.88085938 62.22460938 C-19.99205078 62.21236328 -19.10324219 62.20011719 -18.1875 62.1875 C-17.31029297 62.18685547 -16.43308594 62.18621094 -15.52929688 62.18554688 C-10.58717558 62.15227904 -5.87209231 61.83084794 -1 61 C-1.33 62.65 -1.66 64.3 -2 66 C-11.54616293 68.70889981 -23.67011617 70.28215608 -33.125 66.4375 C-35.1171875 65.31640625 -35.1171875 65.31640625 -37 64 C-38.05574219 63.27103516 -38.05574219 63.27103516 -39.1328125 62.52734375 C-45.51589577 57.54571234 -49.29912717 50.89762536 -51 43 C-51.99345571 30.42525911 -52.04898499 17.98348165 -43.73046875 7.81640625 C-32.18627279 -4.30109063 -15.1791528 -6.62363031 0 0 Z " fill="#EDF1FE" transform="translate(581,41)"/>
<path d="M0 0 C1.04800781 0.00193359 1.04800781 0.00193359 2.1171875 0.00390625 C7.84180281 0.10952646 12.9218889 1.16076282 18.25 3.3125 C17.92 4.9625 17.59 6.6125 17.25 8.3125 C16.095 7.9825 14.94 7.6525 13.75 7.3125 C5.34395525 5.47409402 -6.47228473 4.13006338 -14.078125 8.92578125 C-20.1770305 13.98445287 -24.48023789 19.36514965 -25.75 27.3125 C-26.70738078 38.66942954 -26.2011396 49.93088249 -19 59.375 C-13.80226318 64.61104938 -8.56533328 65.43857773 -1.51098633 65.55688477 C4.83451041 65.57264402 10.96215583 65.19053229 17.25 64.3125 C16.92 65.9625 16.59 67.6125 16.25 69.3125 C6.66986243 72.03104074 -5.47035022 73.60494129 -14.9375 69.6875 C-16.93359375 68.56640625 -16.93359375 68.56640625 -18.75 67.3125 C-19.38035156 66.88839844 -20.01070312 66.46429688 -20.66015625 66.02734375 C-27.11504564 61.10737498 -31.03099257 53.9683567 -32.46484375 46.01953125 C-33.77211837 33.60937626 -33.25551197 22.63924611 -26.0625 12 C-19.35885809 3.73500352 -10.52385002 -0.08064253 0 0 Z " fill="#EDF1FE" transform="translate(236.75,37.6875)"/>
<path d="M0 0 C16.5 0 33 0 50 0 C50 1.65 50 3.3 50 5 C42.74 5 35.48 5 28 5 C28 26.12 28 47.24 28 69 C26.02 69 24.04 69 22 69 C22 47.88 22 26.76 22 5 C14.74 5 7.48 5 0 5 C0 3.35 0 1.7 0 0 Z " fill="#EBF0FE" transform="translate(148,39)"/>
<path d="M0 0 C16.5 0 33 0 50 0 C50 1.65 50 3.3 50 5 C42.41 5 34.82 5 27 5 C27 26.12 27 47.24 27 69 C25.35 69 23.7 69 22 69 C22 47.55 22 26.1 22 4 C14.74 4 7.48 4 0 4 C0 2.68 0 1.36 0 0 Z " fill="#F3F6FE" transform="translate(585,39)"/>
</svg>
